<?xml version="1.0" encoding="UTF-8" standalone="no"?>
<!-- Created with Inkscape (http://www.inkscape.org/) -->

<svg
   xmlns:dc="http://purl.org/dc/elements/1.1/"
   xmlns:cc="http://creativecommons.org/ns#"
   xmlns:rdf="http://www.w3.org/1999/02/22-rdf-syntax-ns#"
   xmlns:svg="http://www.w3.org/2000/svg"
   xmlns="http://www.w3.org/2000/svg"
   xmlns:sodipodi="http://sodipodi.sourceforge.net/DTD/sodipodi-0.dtd"
   xmlns:inkscape="http://www.inkscape.org/namespaces/inkscape"
   width="210mm"
   height="297mm"
   viewBox="0 0 210 297"
   version="1.1"
   id="svg8"
   inkscape:version="0.92.2 5c3e80d, 2017-08-06"
   sodipodi:docname="Si(OH)4LewisStructure.svg">
  <defs
     id="defs2" />
  <sodipodi:namedview
     id="base"
     pagecolor="#ffffff"
     bordercolor="#666666"
     borderopacity="1.0"
     inkscape:pageopacity="0.0"
     inkscape:pageshadow="2"
     inkscape:zoom="0.98994949"
     inkscape:cx="405.13657"
     inkscape:cy="611.71439"
     inkscape:document-units="mm"
     inkscape:current-layer="layer1"
     showgrid="false"
     inkscape:window-width="1366"
     inkscape:window-height="742"
     inkscape:window-x="0"
     inkscape:window-y="0"
     inkscape:window-maximized="0"
     inkscape:snap-object-midpoints="true">
    <sodipodi:guide
       position="0,0"
       orientation="0,793.70079"
       id="guide7683"
       inkscape:locked="false" />
    <sodipodi:guide
       position="210,0"
       orientation="-1122.5197,0"
       id="guide7685"
       inkscape:locked="false" />
    <sodipodi:guide
       position="210,297"
       orientation="0,-793.70079"
       id="guide7687"
       inkscape:locked="false" />
    <sodipodi:guide
       position="0,297"
       orientation="1122.5197,0"
       id="guide7689"
       inkscape:locked="false" />
  </sodipodi:namedview>
  <metadata
     id="metadata5">
    <rdf:RDF>
      <cc:Work
         rdf:about="">
        <dc:format>image/svg+xml</dc:format>
        <dc:type
           rdf:resource="http://purl.org/dc/dcmitype/StillImage" />
        <dc:title></dc:title>
      </cc:Work>
    </rdf:RDF>
  </metadata>
  <g
     inkscape:label="Layer 1"
     inkscape:groupmode="layer"
     id="layer1">
    <text
       xml:space="preserve"
       style="font-style:normal;font-weight:normal;font-size:10.58333302px;line-height:1.25;font-family:sans-serif;letter-spacing:0px;word-spacing:0px;fill:#000000;fill-opacity:1;stroke:none;stroke-width:0.26458332"
       x="88.446426"
       y="173.0238"
       id="text7641"><tspan
         sodipodi:role="line"
         id="tspan7639"
         x="88.446426"
         y="182.38757"
         style="stroke-width:0.26458332" /></text>
    <text
       xml:space="preserve"
       style="font-style:normal;font-weight:normal;font-size:10.58333302px;line-height:1.25;font-family:sans-serif;letter-spacing:0px;word-spacing:0px;fill:#000000;fill-opacity:1;stroke:none;stroke-width:0.26458332"
       x="90.249199"
       y="147.6994"
       id="text7645"><tspan
         sodipodi:role="line"
         id="tspan7643"
         x="90.249199"
         y="147.6994"
         style="stroke-width:0.26458332">Si</tspan></text>
    <text
       xml:space="preserve"
       style="font-style:normal;font-weight:normal;font-size:10.58333302px;line-height:1.25;font-family:sans-serif;letter-spacing:0px;word-spacing:0px;fill:#000000;fill-opacity:1;stroke:none;stroke-width:0.26458332"
       x="90.765961"
       y="118.59524"
       id="text7649"><tspan
         sodipodi:role="line"
         id="tspan7647"
         x="90.765961"
         y="118.59524"
         style="stroke-width:0.26458332">O</tspan><tspan
         sodipodi:role="line"
         x="90.765961"
         y="131.8244"
         style="stroke-width:0.26458332"
         id="tspan7651" /></text>
    <text
       xml:space="preserve"
       style="font-style:normal;font-weight:normal;font-size:10.58333302px;line-height:1.25;font-family:sans-serif;letter-spacing:0px;word-spacing:0px;fill:#000000;fill-opacity:1;stroke:none;stroke-width:0.26458332"
       x="121.70833"
       y="147.60638"
       id="text7655"><tspan
         sodipodi:role="line"
         id="tspan7653"
         x="121.70833"
         y="147.60638"
         style="stroke-width:0.26458332">O</tspan></text>
    <text
       xml:space="preserve"
       style="font-style:normal;font-weight:normal;font-size:10.58333302px;line-height:1.25;font-family:sans-serif;letter-spacing:0px;word-spacing:0px;fill:#000000;fill-opacity:1;stroke:none;stroke-width:0.26458332"
       x="90.765961"
       y="173.77977"
       id="text7659"><tspan
         sodipodi:role="line"
         id="tspan7657"
         x="90.765961"
         y="173.77977"
         style="stroke-width:0.26458332">O</tspan></text>
    <text
       xml:space="preserve"
       style="font-style:normal;font-weight:normal;font-size:10.58333302px;line-height:1.25;font-family:sans-serif;letter-spacing:0px;word-spacing:0px;fill:#000000;fill-opacity:1;stroke:none;stroke-width:0.26458332"
       x="62.744053"
       y="147.60638"
       id="text7663"><tspan
         sodipodi:role="line"
         id="tspan7661"
         x="62.744053"
         y="147.60638"
         style="stroke-width:0.26458332">O</tspan><tspan
         sodipodi:role="line"
         x="62.744053"
         y="160.83556"
         style="stroke-width:0.26458332"
         id="tspan7665" /></text>
    <text
       xml:space="preserve"
       style="font-style:normal;font-weight:normal;font-size:10.58333302px;line-height:1.25;font-family:sans-serif;letter-spacing:0px;word-spacing:0px;fill:#000000;fill-opacity:1;stroke:none;stroke-width:0.26458332"
       x="90.951996"
       y="96.672615"
       id="text7669"><tspan
         sodipodi:role="line"
         id="tspan7667"
         x="90.951996"
         y="96.672615"
         style="stroke-width:0.26458332">H</tspan></text>
    <text
       xml:space="preserve"
       style="font-style:normal;font-weight:normal;font-size:10.58333302px;line-height:1.25;font-family:sans-serif;letter-spacing:0px;word-spacing:0px;fill:#000000;fill-opacity:1;stroke:none;stroke-width:0.26458332"
       x="144.3869"
       y="147.61156"
       id="text7673"><tspan
         sodipodi:role="line"
         id="tspan7671"
         x="144.3869"
         y="147.61156"
         style="stroke-width:0.26458332">H</tspan></text>
    <text
       xml:space="preserve"
       style="font-style:normal;font-weight:normal;font-size:10.58333302px;line-height:1.25;font-family:sans-serif;letter-spacing:0px;word-spacing:0px;fill:#000000;fill-opacity:1;stroke:none;stroke-width:0.26458332"
       x="90.951996"
       y="200.2381"
       id="text7677"><tspan
         sodipodi:role="line"
         id="tspan7675"
         x="90.951996"
         y="200.2381"
         style="stroke-width:0.26458332">H</tspan></text>
    <text
       xml:space="preserve"
       style="font-style:normal;font-weight:normal;font-size:10.58333302px;line-height:1.25;font-family:sans-serif;letter-spacing:0px;word-spacing:0px;fill:#000000;fill-opacity:1;stroke:none;stroke-width:0.26458332"
       x="37.797619"
       y="147.61156"
       id="text7681"><tspan
         sodipodi:role="line"
         id="tspan7679"
         x="37.797619"
         y="147.61156"
         style="stroke-width:0.26458332">H</tspan></text>
    <path
       id="path7697"
       d="m 95.906031,118.95694 c -0.0061,1.06999 -0.0037,2.14001 -0.0037,3.21002 7.4e-5,0.86042 7.93e-4,1.72085 0.0051,2.58125 -1.1e-5,0.49451 0.0013,0.98901 0.0016,1.48352 -0.0048,0.45089 0.0028,0.9018 5.29e-4,1.35269 -0.0013,0.82328 -0.0058,1.64657 -0.01397,2.46981 -0.0167,2.09522 -0.0045,4.19046 0.0024,6.28568 0.0039,0.76417 0.01122,1.52831 0.0094,2.2925 -0.06547,0.34964 -0.24611,0.64299 -0.454371,0.92294 0,0 -1.500847,-0.0996 -1.500847,-0.0996 v 0 c 0.202113,-0.24658 0.381474,-0.50718 0.456338,-0.82336 -0.0019,-0.76419 0.0055,-1.52833 0.0094,-2.2925 0.0068,-2.09522 0.01897,-4.19046 0.0024,-6.28568 -0.0081,-0.82324 -0.01259,-1.64653 -0.01397,-2.46981 -0.0024,-0.45089 0.0053,-0.9018 5.29e-4,-1.35269 2.65e-4,-0.49451 0.0016,-0.98901 0.0016,-1.48352 0.0043,-0.8604 0.005,-1.72083 0.0051,-2.58125 -8.2e-5,-1.07001 0.0024,-2.14003 -0.0037,-3.21002 0,0 1.496637,0 1.496637,0 z"
       inkscape:connector-curvature="0"
       style="stroke-width:0.26458332" />
    <path
       id="path7699"
       d="m 100.97506,143.63781 c 2.41787,0.002 4.83576,0.003 7.25363,0.005 3.45754,0.002 6.91508,-5.3e-4 10.37261,-0.002 1.43654,-2.7e-4 2.87307,-10e-4 4.30961,-0.004 0.33267,0.2588 -0.17316,0.23536 -0.35985,0.23508 -0.0619,-3e-5 -0.12374,-5e-5 -0.18561,-7e-5 0,0 -1.48557,-0.23529 -1.48557,-0.23529 v 0 c 0.0616,-2e-5 0.1232,-4e-5 0.1848,-7e-5 0.18264,-2.6e-4 0.67809,-0.031 0.36421,0.23508 -1.42136,-0.002 -2.84271,-0.003 -4.26407,-0.004 -3.45101,-0.001 -6.90202,-0.003 -10.35304,-0.002 -2.43705,0.002 -4.87411,0.002 -7.311163,0.005 0,0 1.474443,-0.23352 1.474443,-0.23352 z"
       inkscape:connector-curvature="0"
       style="stroke-width:0.26458332" />
    <path
       id="path7703"
       d="m 95.679515,149.19503 c -0.0037,0.95981 -0.0038,1.91967 -0.0021,2.87949 0.0016,0.98768 -0.0011,1.97536 -0.0028,2.96304 -0.008,1.55934 -0.0052,3.11865 -0.0024,4.67799 -0.0042,1.04837 0.0066,2.09672 0.0073,3.14508 0.003,0.39538 0.0019,0.79074 1.25e-4,1.18613 0,0 -1.4971,0 -1.4971,0 v 0 c -0.0019,-0.39539 -0.0028,-0.79075 1.24e-4,-1.18613 5.29e-4,-1.04836 0.01146,-2.09671 0.0073,-3.14508 0.0029,-1.55934 0.0057,-3.11865 -0.0024,-4.67799 -0.0019,-0.98768 -0.0044,-1.97536 -0.0028,-2.96304 0.0019,-0.95982 0.0016,-1.91968 -0.0021,-2.87949 0,0 1.496635,0 1.496635,0 z"
       inkscape:connector-curvature="0"
       style="stroke-width:0.26458332" />
    <path
       id="path7705"
       d="m 131.88056,143.637 c 1.363,0.001 2.72599,0.002 4.08899,0.001 1.1756,-2.6e-4 2.3512,-5.3e-4 3.52681,-0.001 0.67706,-2e-4 1.35412,-1.5e-4 2.03119,-5.3e-4 0.40322,7e-5 0.80645,-5.3e-4 1.20967,-1.4e-4 0.18191,8e-5 0.36382,-5e-5 0.54573,-1.9e-4 0,0 -1.48701,0.23553 -1.48701,0.23553 v 0 c -0.18112,-1.4e-4 -0.36223,-2.7e-4 -0.54334,-1.9e-4 -0.40265,2.6e-4 -0.80529,-2.1e-4 -1.20794,-1.4e-4 -0.67447,-5.3e-4 -1.34894,-5.3e-4 -2.0234,-5.3e-4 -1.17069,-5.3e-4 -2.34138,-8e-4 -3.51206,-0.001 -1.36895,-2.3e-4 -2.7379,5.3e-4 -4.10685,0.001 0,0 1.47821,-0.23412 1.47821,-0.23412 z"
       inkscape:connector-curvature="0"
       style="stroke-width:0.26458332" />
    <path
       id="path7707"
       d="m 88.826246,143.50792 c -1.016066,0.2594 -2.047319,0.45733 -3.087415,0.58945 -0.71774,0.0938 -1.442487,0.0945 -2.164916,0.0988 -1.289383,0.002 -2.578766,-1.1e-4 -3.868147,-0.003 -0.478634,-7.9e-4 -0.957271,-7.9e-4 -1.435904,-0.001 0.269046,1.4e-4 -1.076185,-3e-5 -0.807138,-7e-5 2.421138,-2.6e-4 1.101029,2.7e-4 0.600744,-2.5e-4 -1.034661,2.5e-4 -2.069322,-10e-4 -3.10398,-10e-4 -0.855269,-1e-4 -1.710537,10e-5 -2.565805,5.3e-4 0,0 -1.47065,-0.23293 -1.47065,-0.23293 v 0 c 0.857634,5.3e-4 1.715268,8e-4 2.572901,5.3e-4 1.029872,-1.7e-4 2.059744,-0.001 3.089619,-0.001 1.055301,-0.001 2.110605,-2.2e-4 3.165906,-2.2e-4 0.47811,-1.8e-4 0.95622,2.6e-4 1.43433,0.002 0.336799,8e-4 0.673595,0.002 1.010394,0.003 0.152249,2.7e-4 0.608991,5.3e-4 0.456745,8e-4 -0.185293,5.3e-4 -1.727819,2.6e-4 -0.555874,1.1e-4 0.721601,-0.002 1.445683,0.002 2.163609,-0.0813 1.038617,-0.12196 2.069952,-0.30841 3.082547,-0.57151 0,0 1.483034,0.19778 1.483034,0.19778 z"
       inkscape:connector-curvature="0"
       style="stroke-width:0.26458332" />
    <path
       id="path7709"
       d="m 60.853594,143.87091 c -1.625727,-0.003 -3.251459,-0.002 -4.877188,-0.001 -1.274901,-3e-5 -2.549803,-1e-4 -3.824706,0.001 -0.64928,-2e-5 -1.298562,5.3e-4 -1.947841,2.6e-4 -0.662006,-7e-5 -1.324012,-2e-5 -1.986018,-2.5e-4 -0.324186,10e-5 -0.64837,2.6e-4 -0.972556,1.7e-4 0,0 -1.479748,-0.23437 -1.479748,-0.23437 v 0 c 0.324906,-9e-5 0.649811,7e-5 0.974717,1.7e-4 0.660924,-2.3e-4 1.321848,-1.8e-4 1.982772,-2.6e-4 0.650753,-2.2e-4 1.301509,2.7e-4 1.952265,2.7e-4 1.279988,0.001 2.559976,0.001 3.839964,0.001 1.620043,2.1e-4 3.24009,0.002 4.860131,-0.001 0,0 1.478208,0.23412 1.478208,0.23412 z"
       inkscape:connector-curvature="0"
       style="stroke-width:0.26458332" />
    <path
       id="path7713"
       d="m 95.679501,98.546223 c -0.02355,2.661947 -0.03317,5.323967 -0.03004,7.986017 0.0024,0.47701 0.0031,0.95404 0.0075,1.43104 0.0024,0.27061 0.0074,0.5412 0.01307,0.81176 0.0024,0.11444 0.130178,0.35662 0.01654,0.34298 -1.606836,-0.19288 -1.510181,0.29268 -1.504932,-0.5106 -8.5e-5,-0.56024 0.0011,-1.12047 -0.0021,-1.6807 -0.0013,-0.18977 -5.29e-4,-0.10221 -0.0021,-0.26268 0,0 1.507289,0 1.507289,0 v 0 c -0.0013,0.16047 -7.94e-4,0.0729 -0.0021,0.26268 -0.0031,0.56023 -0.0019,1.12046 -0.0021,1.6807 0.0052,0.80328 0.101907,0.31772 -1.504928,0.5106 -0.113644,0.0137 0.01413,-0.22854 0.01654,-0.34298 0.0057,-0.27056 0.01058,-0.54115 0.01307,-0.81176 0.0044,-0.477 0.005,-0.95403 0.0075,-1.43104 0.0031,-2.66205 -0.0065,-5.32407 -0.03004,-7.986017 0,0 1.496635,0 1.496635,0 z"
       inkscape:connector-curvature="0"
       style="stroke-width:0.26458332" />
    <path
       style="fill:#241c22;fill-opacity:1;stroke-width:0.26458332"
       id="path8598"
       d="m 95.687037,175.6192 c 0,1.56816 0,3.13631 0,4.70446 0,1.81183 0,3.62365 0,5.43547 0,1.28995 0,2.5799 0,3.86985 0,0.36042 0,0.72084 0,1.08126 0,0 -1.511906,0 -1.511906,0 v 0 c 0,-0.36042 0,-0.72084 0,-1.08126 0,-1.28995 0,-2.5799 0,-3.86985 0,-1.81182 0,-3.62364 0,-5.43547 0,-1.56815 0,-3.1363 0,-4.70446 0,0 1.511906,0 1.511906,0 z"
       inkscape:connector-curvature="0" />
    <ellipse
       style="fill:#241c22;fill-opacity:1;stroke-width:0.26458332"
       id="path8638"
       cx="61.988094"
       cy="135.6514"
       rx="1.5119048"
       ry="1.8898809" />
    <ellipse
       style="fill:#241c22;fill-opacity:1;stroke-width:0.26458332"
       id="path8638-5"
       cx="128.13393"
       cy="135.6514"
       rx="1.5119048"
       ry="1.8898809" />
    <ellipse
       style="fill:#241c22;fill-opacity:1;stroke-width:0.26458332"
       id="path8638-3"
       cx="122.0863"
       cy="135.6514"
       rx="1.5119048"
       ry="1.8898809" />
    <ellipse
       style="fill:#241c22;fill-opacity:1;stroke-width:0.26458332"
       id="path8638-56"
       cx="128.13393"
       cy="153.08661"
       rx="1.5119048"
       ry="1.8898809" />
    <ellipse
       style="fill:#241c22;fill-opacity:1;stroke-width:0.26458332"
       id="path8638-2"
       cx="122.0863"
       cy="153.08661"
       rx="1.5119048"
       ry="1.8898809" />
    <ellipse
       style="fill:#241c22;fill-opacity:1;stroke-width:0.26458332"
       id="path8638-9"
       cx="102.43155"
       cy="166.22023"
       rx="1.5119048"
       ry="1.8898809" />
    <ellipse
       style="fill:#241c22;fill-opacity:1;stroke-width:0.26458332"
       id="path8638-1"
       cx="102.43155"
       cy="173.77975"
       rx="1.5119048"
       ry="1.8898809" />
    <ellipse
       style="fill:#241c22;fill-opacity:1;stroke-width:0.26458332"
       id="path8638-27"
       cx="87.201797"
       cy="166.22025"
       rx="1.5119048"
       ry="1.8898809" />
    <ellipse
       style="fill:#241c22;fill-opacity:1;stroke-width:0.26458332"
       id="path8638-0"
       cx="87.201797"
       cy="173.77975"
       rx="1.5119048"
       ry="1.8898809" />
    <ellipse
       style="fill:#241c22;fill-opacity:1;stroke-width:0.26458332"
       id="path8638-93"
       cx="102.43155"
       cy="111.83752"
       rx="1.5119048"
       ry="1.8898809" />
    <ellipse
       style="fill:#241c22;fill-opacity:1;stroke-width:0.26458332"
       id="path8638-6"
       cx="102.43155"
       cy="117.46524"
       rx="1.5119048"
       ry="1.8898809" />
    <ellipse
       style="fill:#241c22;fill-opacity:1;stroke-width:0.26458332"
       id="path8638-06"
       cx="87.201797"
       cy="117.46524"
       rx="1.5119048"
       ry="1.8898809" />
    <ellipse
       style="fill:#241c22;fill-opacity:1;stroke-width:0.26458332"
       id="path8638-26"
       cx="87.201797"
       cy="111.83752"
       rx="1.5119048"
       ry="1.8898809" />
    <ellipse
       ry="1.8898809"
       rx="1.5119048"
       cy="135.6514"
       cx="61.997311"
       id="ellipse8761"
       style="fill:#241c22;fill-opacity:1;stroke-width:0.26458332" />
    <ellipse
       style="fill:#241c22;fill-opacity:1;stroke-width:0.26458332"
       id="path8638-92"
       cx="68.287369"
       cy="135.5692"
       rx="1.5119048"
       ry="1.8898809" />
    <ellipse
       ry="1.8898809"
       rx="1.5119048"
       cy="166.22025"
       cx="87.201797"
       id="ellipse8769"
       style="fill:#241c22;fill-opacity:1;stroke-width:0.26458332" />
    <ellipse
       style="fill:#241c22;fill-opacity:1;stroke-width:0.26458332"
       id="path8638-02"
       cx="61.997311"
       cy="153.08661"
       rx="1.5119048"
       ry="1.8898809" />
    <ellipse
       style="fill:#241c22;fill-opacity:1;stroke-width:0.26458332"
       id="path8638-37"
       cx="68.287369"
       cy="153.08661"
       rx="1.5119048"
       ry="1.8898809" />
  </g>
</svg>
